<svg width="24" height="24" viewBox="0 0 24 24" fill="none" xmlns="http://www.w3.org/2000/svg">
<path d="M19.9864 1.94971H19.0115C18.7424 1.94971 18.524 2.16811 18.524 2.4372C18.524 2.70628 18.7424 2.92464 19.0115 2.92464H19.9864C21.3309 2.92464 22.4238 4.01757 22.4238 5.362V19.9862C22.4238 21.3307 21.3309 22.4236 19.9864 22.4236H3.41234C2.06787 22.4236 0.97498 21.3307 0.97498 19.9862V5.362C0.974934 4.01757 2.06787 2.92464 3.41234 2.92464H4.38727C4.65636 2.92464 4.87476 2.70624 4.87476 2.43715C4.87476 2.16807 4.65636 1.94971 4.38727 1.94971H3.41234C1.53066 1.94971 0 3.48036 0 5.362V19.9862C0 21.8679 1.53066 23.3986 3.41234 23.3986H19.9865C21.8681 23.3986 23.3988 21.8679 23.3988 19.9862V5.362C23.3988 3.48036 21.8681 1.94971 19.9864 1.94971Z" fill="white"/>
<path d="M15.1117 1.94971H8.28705C8.01796 1.94971 7.79956 2.16811 7.79956 2.4372C7.79956 2.70628 8.01796 2.92464 8.28705 2.92464H15.1117C15.3808 2.92464 15.5992 2.70624 15.5992 2.43715C15.5992 2.16807 15.3808 1.94971 15.1117 1.94971Z" fill="white"/>
<path d="M22.9113 6.82471H0.48749C0.218404 6.82471 0 7.04311 0 7.3122C0 7.58128 0.218404 7.79969 0.48749 7.79969H22.9113C23.1804 7.79969 23.3988 7.58128 23.3988 7.3122C23.3988 7.04311 23.1804 6.82471 22.9113 6.82471Z" fill="white"/>
<path d="M6.33719 0C6.0681 0 5.8497 0.218404 5.8497 0.48749V4.38727C5.8497 4.65636 6.0681 4.87476 6.33719 4.87476C6.60628 4.87476 6.82468 4.65636 6.82468 4.38727V0.48749C6.82463 0.218404 6.60628 0 6.33719 0Z" fill="white"/>
<path d="M17.0616 0C16.7925 0 16.5741 0.218404 16.5741 0.48749V4.38727C16.5741 4.65636 16.7925 4.87476 17.0616 4.87476C17.3307 4.87476 17.5491 4.65636 17.5491 4.38727V0.48749C17.5491 0.218404 17.3307 0 17.0616 0Z" fill="white"/>
<rect x="3" y="15" width="3" height="1" rx="0.5" fill="white"/>
<rect x="3" y="19" width="3" height="1" rx="0.5" fill="white"/>
<rect x="10" y="11" width="3" height="1" rx="0.5" fill="white"/>
<rect x="10" y="15" width="3" height="1" rx="0.5" fill="white"/>
<rect x="10" y="19" width="3" height="1" rx="0.5" fill="white"/>
<rect x="17" y="11" width="3" height="1" rx="0.5" fill="white"/>
<rect x="17" y="15" width="3" height="1" rx="0.5" fill="white"/>
<rect x="17" y="19" width="3" height="1" rx="0.5" fill="white"/>
</svg>
