<svg width="22" height="10" viewBox="0 0 22 10" fill="none" xmlns="http://www.w3.org/2000/svg">
<path fill-rule="evenodd" clip-rule="evenodd" d="M15.1631 8.1445C15.1631 7.14912 15.9729 6.33936 16.9682 6.33936C17.9636 6.33936 18.7733 7.14917 18.7734 8.1445C18.7734 9.13987 17.9636 9.94964 16.9682 9.94964C15.9729 9.94964 15.1631 9.13983 15.1631 8.1445ZM15.8852 8.1445C15.8852 8.74163 16.3711 9.22757 16.9682 9.22757C17.5654 9.22757 18.0513 8.74163 18.0513 8.1445C18.0513 7.54737 17.5654 7.06142 16.9682 7.06142C16.3711 7.06142 15.8852 7.54737 15.8852 8.1445Z" fill="#444444"/>
<path fill-rule="evenodd" clip-rule="evenodd" d="M2.88818 8.1445C2.88818 7.14912 3.698 6.33936 4.69333 6.33936C5.6887 6.33936 6.49847 7.14917 6.49847 8.1445C6.49847 9.13987 5.68866 9.94964 4.69333 9.94964C3.69795 9.94964 2.88818 9.13983 2.88818 8.1445ZM3.61025 8.1445C3.61025 8.74163 4.0962 9.22757 4.69333 9.22757C5.29046 9.22757 5.7764 8.74163 5.7764 8.1445C5.7764 7.54737 5.29046 7.06142 4.69333 7.06142C4.0962 7.06142 3.61025 7.54737 3.61025 8.1445Z" fill="#444444"/>
<path fill-rule="evenodd" clip-rule="evenodd" d="M21.0536 3.83061C21.2012 3.87968 21.3005 4.01761 21.3005 4.17321V6.33937C21.4998 6.33937 21.6615 6.50111 21.6614 6.70038V8.14447C21.6614 8.34374 21.4996 8.50548 21.3004 8.50548H19.8563C19.657 8.50548 19.4953 8.34374 19.4953 8.14447C19.4953 6.75094 18.3617 5.6173 16.9681 5.6173C15.5746 5.6173 14.4409 6.75089 14.4409 8.14447C14.4409 8.34374 14.2792 8.50548 14.0799 8.50548H7.58145C7.38218 8.50548 7.22044 8.34374 7.22044 8.14447C7.22044 6.75094 6.08681 5.6173 4.69328 5.6173C3.29975 5.6173 2.16611 6.75089 2.16611 8.14447C2.16611 8.34374 2.00437 8.50548 1.8051 8.50548H0.361012C0.161742 8.50548 0 8.34374 0 8.14447V6.70038C0 6.50111 0.161742 6.33937 0.361012 6.33937V5.25629C0.361012 3.8826 2.8438 3.12627 5.24209 3.09162C7.31652 0.581037 10.5477 -0.389756 14.8641 0.207375C17.1946 0.615687 18.2491 1.85221 19.0163 3.15153L21.0536 3.83061ZM14.7461 0.920006C13.8684 0.79871 13.0471 0.747094 12.2749 0.757544V3.09048H18.1248C18.1248 3.09048 17.9592 2.53902 17.0679 1.8572C16.1767 1.17539 15.1808 0.996541 14.7461 0.920006ZM11.5528 0.78826V3.09052H6.21758C7.5559 1.70993 9.3206 0.947083 11.5528 0.78826ZM20.1976 7.7835H20.9395V7.06143C20.7402 7.06143 20.5785 6.89969 20.5785 6.70042V5.61734V4.89532V4.43358L18.7145 3.81224H5.41538C3.23984 3.81224 1.4311 4.65707 1.25709 4.89532C1.12 5.08301 1.11253 5.19888 1.0985 5.41623C1.09472 5.47477 1.09047 5.54068 1.08308 5.61734C1.04825 5.9786 1.08308 6.70042 1.08308 6.70042C1.08308 6.89969 0.921335 7.06143 0.722065 7.06143V7.7835H1.46393C1.64408 6.16104 3.02356 4.89528 4.69332 4.89528C6.36308 4.89528 7.74256 6.16104 7.92271 7.7835H13.7388C13.9189 6.16104 15.2984 4.89528 16.9682 4.89528C18.6379 4.89528 20.0174 6.16104 20.1976 7.7835Z" fill="#444444"/>
</svg>
