<svg width="24" height="24" viewBox="0 0 24 24" fill="none" xmlns="http://www.w3.org/2000/svg">
<path fill-rule="evenodd" clip-rule="evenodd" d="M3.41234 0H19.9864C21.8681 0 23.3988 1.53066 23.3988 3.41234V15.1117C23.3988 16.8277 22.1256 18.2521 20.474 18.4899V22.9113C20.474 23.1083 20.355 23.2867 20.1727 23.3618C20.1123 23.3862 20.0489 23.3988 19.9865 23.3988C19.8598 23.3988 19.735 23.3491 19.6414 23.2565L14.9099 18.5241H3.41234C1.53066 18.5241 0 16.9934 0 15.1117V3.41234C0 1.53066 1.53066 0 3.41234 0ZM19.9865 17.5491C21.33 17.5491 22.4238 16.4562 22.4238 15.1117V3.41234C22.4238 2.06791 21.33 0.97498 19.9865 0.97498H3.41234C2.06887 0.97498 0.97498 2.06787 0.97498 3.41234V15.1117C0.97498 16.4562 2.06887 17.5491 3.41234 17.5491H15.1117C15.2414 17.5491 15.3652 17.6008 15.4569 17.6914L19.499 21.7345V18.0366C19.499 17.7675 19.7174 17.5491 19.9865 17.5491Z" fill="white"/>
</svg>
