<svg width="24" height="24" viewBox="0 0 24 24" fill="none" xmlns="http://www.w3.org/2000/svg">
<path fill-rule="evenodd" clip-rule="evenodd" d="M0 11.9918C0 5.37967 5.37967 0 11.9918 0C18.6041 0 23.9837 5.37967 23.9837 11.9918C23.9837 18.604 18.604 23.9837 11.9918 23.9837C5.37967 23.9837 0 18.604 0 11.9918ZM1.04275 11.9918C1.04275 18.0295 5.9542 22.9409 11.9918 22.9409C18.0295 22.9409 22.9409 18.0295 22.9409 11.9918C22.9409 5.9542 18.0295 1.04275 11.9918 1.04275C5.9542 1.04275 1.04275 5.9542 1.04275 11.9918Z" fill="white"/>
<path d="M15.4559 9.53727C15.2526 9.33393 14.922 9.33393 14.7187 9.53727L10.9136 13.3392L9.19933 11.6228C8.99599 11.4194 8.66542 11.4194 8.46208 11.6228C8.25874 11.8251 8.25874 12.1567 8.46208 12.36L10.5434 14.4456C10.6414 14.5426 10.7739 14.5978 10.9126 14.5978C11.0512 14.5978 11.1837 14.5426 11.2807 14.4456L15.4559 10.2745C15.6593 10.0712 15.6593 9.74061 15.4559 9.53727Z" fill="white"/>
</svg>
