<svg width="15" height="15" viewBox="0 0 15 15" fill="none" xmlns="http://www.w3.org/2000/svg">
<path d="M15 13.9284C15 14.5201 14.5203 14.9998 13.9286 14.9998C13.3369 14.9998 12.8571 14.5201 12.8571 13.9284C12.8571 13.3367 13.3369 12.8569 13.9286 12.8569C14.5203 12.8569 15 13.3367 15 13.9284Z" fill="#444444"/>
<path d="M6.16071 13.1611V14.6961L7.08157 13.9286L6.16071 13.1611Z" fill="#444444"/>
<path d="M7.59689 14.1964H12.3214V13.6606H7.59689L7.6715 13.7225C7.73271 13.7734 7.76807 13.8489 7.76807 13.9285C7.76807 14.0081 7.73271 14.0836 7.6715 14.1345L7.59689 14.1964Z" fill="#444444"/>
<path d="M2.14286 1.07143C2.14286 1.66312 1.66312 2.14286 1.07143 2.14286C0.479736 2.14286 0 1.66312 0 1.07143C0 0.479736 0.479736 0 1.07143 0C1.66312 0 2.14286 0.479736 2.14286 1.07143Z" fill="#444444"/>
<path d="M11.5178 7.768C13.441 7.768 15 6.20898 15 4.28585C15 2.36272 13.441 0.803711 11.5178 0.803711H9.20402L9.27863 0.865548C9.33984 0.916504 9.3752 0.991943 9.3752 1.07157C9.3752 1.15119 9.33984 1.22663 9.27863 1.27759L9.20402 1.33943H11.5178C13.1451 1.33943 14.4643 2.65862 14.4643 4.28585C14.4643 5.91309 13.1451 7.23228 11.5178 7.23228H9.08307C9.11509 7.40932 9.11509 7.59096 9.08307 7.768H11.5178Z" fill="#444444"/>
<path d="M2.67856 0.803711H7.23213V1.33943H2.67856V0.803711Z" fill="#444444"/>
<path d="M8.57142 7.50014C8.57142 8.09183 8.09168 8.57157 7.49999 8.57157C6.90829 8.57157 6.42856 8.09183 6.42856 7.50014C6.42856 6.90845 6.90829 6.42871 7.49999 6.42871C8.09168 6.42871 8.57142 6.90845 8.57142 7.50014Z" fill="#444444"/>
<path d="M7.76785 1.83866L8.68872 1.07118L7.76785 0.303711V1.83866Z" fill="#444444"/>
<path d="M5.91692 7.76765C5.88491 7.59061 5.88491 7.40897 5.91692 7.23193H3.48214C1.55901 7.23193 0 8.79095 0 10.7141C0 12.6372 1.55901 14.1962 3.48214 14.1962H5.625V13.6605H3.48214C1.85491 13.6605 0.535714 12.3413 0.535714 10.7141C0.535714 9.08684 1.85491 7.76765 3.48214 7.76765H5.91692Z" fill="#444444"/>
</svg>
