<svg width="19" height="24" viewBox="0 0 19 24" fill="none" xmlns="http://www.w3.org/2000/svg">
<path fill-rule="evenodd" clip-rule="evenodd" d="M13.1656 0H0.200012V24H19V5.8344L13.1656 0ZM13.4 1.3656L17.6344 5.6H13.4V1.3656ZM1.00001 0.8V23.2H18.2V6.4H12.6V0.8H1.00001Z" fill="white"/>
<path d="M14.4 8.3999H4.80001C4.46881 8.3999 4.20001 8.5787 4.20001 8.7999C4.20001 9.0211 4.46881 9.1999 4.80001 9.1999H14.4C14.7312 9.1999 15 9.0211 15 8.7999C15 8.5787 14.7312 8.3999 14.4 8.3999Z" fill="white"/>
<path d="M14.4 12.7998H4.80001C4.46881 12.7998 4.20001 12.9786 4.20001 13.1998C4.20001 13.421 4.46881 13.5998 4.80001 13.5998H14.4C14.7312 13.5998 15 13.421 15 13.1998C15 12.9786 14.7312 12.7998 14.4 12.7998Z" fill="white"/>
<path d="M14.4 17.2002H4.80001C4.46881 17.2002 4.20001 17.379 4.20001 17.6002C4.20001 17.8214 4.46881 18.0002 4.80001 18.0002H14.4C14.7312 18.0002 15 17.8214 15 17.6002C15 17.379 14.7312 17.2002 14.4 17.2002Z" fill="white"/>
</svg>
