<svg width="25" height="15" viewBox="0 0 25 15" fill="none" xmlns="http://www.w3.org/2000/svg">
<path fill-rule="evenodd" clip-rule="evenodd" d="M21.3438 3.66633L21.3415 3.66356L21.3393 3.66079L21.3382 3.65957C21.3377 3.65909 21.3371 3.65867 21.3366 3.65827C21.3362 3.65798 21.3358 3.65769 21.3353 3.6574L21.3337 3.65625C16.4535 -1.21875 8.54661 -1.21875 3.66638 3.65625L3.6636 3.65852L3.66083 3.66079C3.65936 3.66189 3.65843 3.66326 3.65745 3.6647L3.6563 3.66633C1.30739 6.00488 -0.00905282 9.18548 4.68629e-05 12.5C4.68629e-05 12.7227 0.180577 12.9032 0.403273 12.9032H3.62908C3.85177 12.9032 4.0323 12.7227 4.0323 12.5C4.0323 7.83065 7.83069 4.03226 12.5 4.03226C17.1694 4.03226 20.9678 7.83065 20.9678 12.5C20.9678 12.7227 21.1483 12.9032 21.371 12.9032H24.5968C24.8195 12.9032 25 12.7227 25 12.5C25.0091 9.18548 23.6927 6.00488 21.3438 3.66633ZM3.23442 12.0968H0.813051C0.902574 9.27394 2.01849 6.58064 3.95166 4.52168L5.66688 6.2369C4.18976 7.84181 3.32809 9.91759 3.23442 12.0968ZM6.23644 5.66633C7.84177 4.18969 9.91764 3.32841 12.0968 3.23488V0.814015C9.27409 0.903171 6.58078 2.01874 4.52172 3.95162L6.23644 5.66633ZM12.9033 3.23488V0.814015C15.726 0.903171 18.4193 2.01874 20.4784 3.95162L18.7637 5.66633C17.1583 4.18969 15.0825 3.32841 12.9033 3.23488ZM19.3332 6.2369C20.8103 7.84181 21.672 9.91759 21.7657 12.0968H24.187C24.0975 9.27394 22.9816 6.58064 21.0484 4.52168L19.3332 6.2369Z" fill="#444444"/>
<path fill-rule="evenodd" clip-rule="evenodd" d="M13.2662 7.90323V11.1801C14.0527 11.3831 14.5654 12.1393 14.4631 12.945C14.3607 13.7507 13.6752 14.3547 12.863 14.3547C12.0508 14.3547 11.3653 13.7507 11.263 12.945C11.1606 12.1393 11.6734 11.3831 12.4598 11.1801V7.90323C12.4598 7.68053 12.6403 7.5 12.863 7.5C13.0857 7.5 13.2662 7.68053 13.2662 7.90323ZM12.0566 12.7419C12.0566 13.1873 12.4176 13.5484 12.863 13.5484C13.3082 13.5479 13.6689 13.1871 13.6695 12.7419C13.6695 12.2965 13.3084 11.9355 12.863 11.9355C12.4176 11.9355 12.0566 12.2965 12.0566 12.7419Z" fill="#444444"/>
</svg>
