<svg width="13" height="15" viewBox="0 0 13 15" fill="none" xmlns="http://www.w3.org/2000/svg">
<path fill-rule="evenodd" clip-rule="evenodd" d="M10.65 13.2429H11.25C11.7429 13.2429 12.1286 13.6286 12.1286 14.1214C12.1286 14.6143 11.7214 15 11.25 15H0.9C0.407143 15 0.0214286 14.6143 0.0214286 14.1214C0.0214286 13.6286 0.428571 13.2429 0.9 13.2429H1.58571C1.5 12.5571 1.52143 11.0357 2.93571 9.62143L3.40714 9.15C4.54286 8.03571 4.58571 7.97143 4.58571 7.5C4.58571 7.05237 4.4797 6.94399 3.52943 5.97263L3.51429 5.95714L2.93571 5.37857C1.52143 3.96429 1.5 2.44286 1.58571 1.75714H0.878571C0.385714 1.75714 0 1.35 0 0.878571C0 0.385714 0.407143 0 0.878571 0H11.2071C11.7 0 12.0857 0.407143 12.0857 0.878571C12.0857 1.37143 11.7 1.75714 11.25 1.75714H10.65C10.7143 2.44286 10.7143 3.94286 9.3 5.37857L8.72143 5.95714C7.75714 6.92143 7.65 7.05 7.65 7.5C7.65 7.97143 7.69286 8.03571 8.82857 9.15L9.3 9.62143C10.7357 11.0357 10.7357 12.5571 10.65 13.2429ZM0.578571 0.878571C0.578571 1.05 0.707143 1.17857 0.857143 1.15714H1.69286H10.4786H11.2071C11.3571 1.15714 11.4857 1.02857 11.4857 0.878571C11.4857 0.728571 11.3571 0.6 11.2071 0.6H0.857143C0.707143 0.6 0.578571 0.728571 0.578571 0.878571ZM3.32143 10.0714L3.79286 9.6L3.88491 9.50798C4.94025 8.4532 5.14286 8.2507 5.14286 7.52143C5.14286 6.81429 4.88571 6.53571 3.9 5.55L3.32143 4.97143C2.03571 3.64286 2.07857 2.27143 2.14286 1.75714H10.0071C10.0929 2.27143 10.1357 3.66429 8.85 4.97143L8.27143 5.55C7.28571 6.53571 7.02857 6.81429 7.02857 7.52143C7.02857 8.25 7.24286 8.46429 8.37857 9.6L8.85 10.0714C10.1571 11.3786 10.0929 12.7714 10.0286 13.2857H2.16429C2.07857 12.7714 2.01429 11.3786 3.32143 10.0714ZM0.878571 14.4429H11.2286C11.3786 14.4429 11.5071 14.3143 11.5071 14.1643C11.5071 13.9929 11.3786 13.8643 11.2286 13.8857H10.5H1.71429H0.878571C0.728571 13.8857 0.6 14.0143 0.6 14.1643C0.6 14.3143 0.728571 14.4429 0.878571 14.4429Z" fill="#444444"/>
</svg>
