<svg width="23" height="24" viewBox="0 0 23 24" fill="none" xmlns="http://www.w3.org/2000/svg">
<path d="M11.2269 11.7598C5.04475 11.7598 0.0150146 16.7895 0.0150146 22.9717C0.0150146 23.2408 0.233419 23.4592 0.502504 23.4592C0.77159 23.4592 0.989994 23.2408 0.989994 22.9717C0.989994 17.3267 5.58201 12.7347 11.227 12.7347C16.8719 12.7347 21.4639 17.3267 21.4639 22.9717C21.4639 23.2408 21.6823 23.4592 21.9514 23.4592C22.2205 23.4592 22.4389 23.2408 22.4389 22.9717C22.4389 16.7885 17.4091 11.7598 11.2269 11.7598Z" fill="white"/>
<path fill-rule="evenodd" clip-rule="evenodd" d="M5.86469 5.36221C5.86469 2.40518 8.27083 0 11.2269 0C14.183 0 16.5891 2.40518 16.5891 5.36221C16.5891 8.31923 14.1829 10.7244 11.2269 10.7244C8.27087 10.7244 5.86469 8.31923 5.86469 5.36221ZM6.83962 5.36221C6.83962 7.78105 8.80804 9.74948 11.2269 9.74948C13.6457 9.74948 15.6142 7.78105 15.6142 5.36221C15.6142 2.94336 13.6457 0.974934 11.2269 0.974934C8.80804 0.974934 6.83962 2.94336 6.83962 5.36221Z" fill="white"/>
</svg>
